<?xml version="1.0" encoding="UTF-8"?> <svg xmlns="http://www.w3.org/2000/svg" version="1.1" viewBox="0 0 895 895" width="895" height="895"><path transform="translate(180,247)" d="m0 0h82l4 9 18 48 10 26 6 16 7 18 6 16 12 31 8 21v3l23-5 38-6 35-4 27-2 24-1h24l-1-138-3-10-6-9-10-5-14-3v-5h128v5l-18 4-9 6-6 10-2 16-1 130 24 1 42 4 42 6 42 8 14 3-1-162-4-11-4-6-8-5-10-3-7-1v-5h128v5l-14 3-10 5-6 7-3 7-1 6v176l27 9v10l-10-2-18-5 1 135 2 11 5 8v2l14 7 13 3v5h-128v-5l13-3 8-4 5-4 6-12 1-4 1-153-11-1-40-6-34-4-39-3-40-2 1 157 2 17 6 11 9 6 10 3 8 2v5h-128v-5l15-4 9-6 4-5 4-10 1-5 1-166-57 4-46 5-47 8-11 2 6 15 6 16 8 20 5 13 13 33 10 26 10 25 6 11 5 5v2l14 7 13 3 1 6h-123v-5l15-5 6-5 3-7v-8l-6-19-31-80-5-13-7-18-3-8-10 2-36 12-21 8-33 15-18 10-18 11-8 6-11 8-15 13-8 9h-2l-2 5-9 24-1 5v14l5 10 8 6 9 3 8 2v5h-97v-5l19-5 11-7 8-9 8-16 6-14 9-22 11-27 13-32 18-44 14-34 10-24 8-20 8-19 11-27 15-37 7-18v-12l-3-5-6-5-11-4-6-2zm38 47-5 11-9 22-13 32-6 15-11 27-6 15-12 29-26 65-9 22-1 5 5-2 15-15 14-11 15-10 15-9 20-11 29-13 29-11 18-6-1-7-10-26-20-50-7-17-5-14-9-22-5-13-3-6z" fill="#509BCD"></path><path transform="translate(180,247)" d="m0 0h82l4 9 18 48 10 26 6 16 7 18 6 16 12 31 8 21v3l-33 8-18 5h-2l-6-17-26-65-7-17-5-14-9-22-5-13-2-5h-2l-11 28-9 21-9 23-7 17-10 24-8 20-11 27-26 65-6 16-12 31-4 8-7 19-1 5v14l5 10 8 6 9 3 8 2v5h-97v-5l19-5 11-7 8-9 8-16 6-14 9-22 11-27 13-32 18-44 14-34 10-24 8-20 8-19 11-27 15-37 7-18v-12l-3-5-6-5-11-4-6-2z" fill="#07345B"></path><path transform="translate(692,247)" d="m0 0h128v5l-14 3-10 5-6 7-3 7-1 6-1 175-7-1-52-14-1-162-4-11-4-6-8-5-10-3-7-1z" fill="#07355C"></path><path transform="translate(508,438)" d="m0 0h54l1 157 2 17 6 11 9 6 10 3 8 2v5h-128v-5l15-4 9-6 4-5 4-10 2-13 1-157z" fill="#07345B"></path><path transform="translate(727,456)" d="m0 0 11 1 44 10 3 1 1 135 2 11 5 8v2l14 7 13 3v5h-128v-5l13-3 8-4 5-4 6-12 2-12z" fill="#07345B"></path><path transform="translate(338,458)" d="m0 0h5l6 14 6 16 8 20 5 13 13 33 10 26 10 25 6 11 5 5v2l14 7 13 3 1 6h-123v-5l15-5 6-5 3-7v-8l-6-19-31-80-5-13-7-18-3-9 35-9z" fill="#07345B"></path><path transform="translate(470,247)" d="m0 0h128v5l-18 4-9 6-6 10-2 16-1 129h-26l-31-1-1-130-3-15-6-10-8-5-11-3-6-1z" fill="#07345B"></path></svg> 